<svg height="511pt" viewBox="0 -15 511.99962 511" width="511pt" xmlns="http://www.w3.org/2000/svg"><path d="m254.652344 384.019531-68.820313 68.820313-126.195312-126.1875 26.886719-26.878906 41.941406-41.941407zm0 0" fill="#545d68"/><path d="m254.652344 384.019531-120.136719-120.136719-6.058594-6.054687-68.820312 68.824219 19.578125 19.574218 11.886718-11.886718c8.28125-8.28125 21.707032-8.28125 29.984376 0l91.625 91.621094zm0 0" fill="#3b454f"/><path d="m244.667969 431.609375-163.796875-163.796875 249.761718-249.765625c13.105469-13.105469 34.355469-13.105469 47.460938 0l116.335938 116.335937c13.109374 13.109376 13.109374 34.359376 0 47.464844zm0 0" fill="#fc5f61"/><path d="m393.570312 33.523438-15.476562-15.476563c-13.105469-13.105469-34.355469-13.105469-47.460938 0l-249.761718 249.765625 15.476562 15.476562 249.761719-249.765624c13.105469-13.105469 34.355469-13.105469 47.460937 0zm0 0" fill="#e83842"/><path d="m154.890625 421.894531v.011719l-52.777344 52.773438-55.449219-20.117188-38.925781-14.125 82.839844-82.839844 26.527344 26.523438zm0 0" fill="#e83842"/><path d="m137.90625 438.890625-35.792969 35.789063-55.449219-20.117188 37.242188-37.242188c8.957031-8.953124 23.476562-8.953124 32.429688 0zm0 0" fill="#fc5f61"/><path d="m315.5625 120.316406-122.59375 122.59375c-8.753906 8.753906-8.753906 22.949219 0 31.703125l44.894531 44.898438c8.757813 8.753906 22.953125 8.753906 31.707031 0l122.589844-122.59375c8.757813-8.753907 8.757813-22.949219 0-31.703125l-44.894531-44.898438c-8.753906-8.753906-22.949219-8.753906-31.703125 0zm0 0" fill="#e6e6e6"/><path d="m499.902344 128.914062-116.335938-116.335937c-16.101562-16.105469-42.304687-16.105469-58.40625 0l-249.761718 249.761719c-3.023438 3.019531-3.023438 7.921875 0 10.941406l13.332031 13.332031-34.566407 34.566407c-3.019531 3.023437-3.019531 7.921874 0 10.941406l25.472657 25.472656-19.332031 19.332031c-3.023438 3.023438-3.023438 7.921875 0 10.945313 3.019531 3.019531 7.921874 3.019531 10.941406 0l19.332031-19.335938 53.363281 53.363282-43.824218 43.824218-78.308594-28.414062 26.222656-26.222656c3.023438-3.023438 3.023438-7.925782 0-10.945313-3.019531-3.023437-7.921875-3.023437-10.941406 0l-34.824219 34.824219c-1.871094 1.871094-2.65625 4.566406-2.082031 7.148437.574218 2.582031 2.429687 4.695313 4.914062 5.59375l94.371094 34.242188c.859375.3125 1.753906.464843 2.636719.464843 2.019531 0 4-.789062 5.476562-2.265624l47.304688-47.304688 25.46875 25.472656c1.511719 1.507813 3.492187 2.265625 5.472656 2.265625s3.960937-.757812 5.472656-2.265625l34.566407-34.566406 13.328124 13.332031c1.453126 1.449219 3.421876 2.265625 5.472657 2.265625 2.054687 0 4.023437-.816406 5.472656-2.265625l190.507813-190.507812c3.023437-3.023438 3.023437-7.921875 0-10.945313-3.019532-3.019531-7.921876-3.019531-10.941407 0l-185.039062 185.039063-152.855469-152.855469 244.292969-244.292969c10.066406-10.070312 26.449219-10.070312 36.519531 0l116.335938 116.335938c4.875 4.878906 7.5625 11.363281 7.5625 18.261719 0 6.894531-2.6875 13.378906-7.5625 18.257812l-37.589844 37.589844c-3.023438 3.019531-3.023438 7.921875 0 10.941406 3.023437 3.023438 7.921875 3.023438 10.945312 0l37.585938-37.589844c7.800781-7.800781 12.097656-18.171875 12.097656-29.199218 0-11.035157-4.296875-21.402344-12.097656-29.203126zm-314.074219 312.984376-115.25-115.246094 29.09375-29.09375 115.25 115.246094zm0 0"/><path d="m310.089844 114.84375-122.59375 122.59375c-11.757813 11.757812-11.757813 30.890625 0 42.648438l44.898437 44.894531c5.878907 5.882812 13.601563 8.820312 21.324219 8.820312 7.71875 0 15.441406-2.9375 21.324219-8.820312l122.59375-122.589844c5.695312-5.695313 8.832031-13.269531 8.832031-21.324219 0-8.054687-3.136719-15.628906-8.832031-21.324218l-44.898438-44.898438c-11.757812-11.757812-30.890625-11.757812-42.648437 0zm80.902344 66.222656c0 3.921875-1.527344 7.605469-4.300782 10.378906l-122.59375 122.59375c-5.722656 5.722657-15.035156 5.722657-20.761718 0l-44.894532-44.894531c-5.722656-5.726562-5.722656-15.039062 0-20.761719l122.59375-122.59375c2.859375-2.863281 6.621094-4.292968 10.378906-4.292968 3.757813 0 7.519532 1.429687 10.378907 4.292968l44.898437 44.898438c2.773438 2.769531 4.300782 6.457031 4.300782 10.378906zm0 0"/></svg>