<svg height="464pt" viewBox="0 -1 464 464" width="464pt" xmlns="http://www.w3.org/2000/svg"><path d="m304 429.664062h-304v32h464v-32zm0 0" fill="#939598"/><path d="m160 205.664062v224h72v-224zm0 0" fill="#d80027"/><path d="m232 205.664062v224h72v-224zm0 0" fill="#ed1c24"/><path d="m368 301.664062h72v128h-72zm0 0" fill="#ffcd00"/><path d="m304 301.664062h64v128h-64zm0 0" fill="#ebbf00"/><path d="m96 269.664062h64v160h-64zm0 0" fill="#2488ff"/><path d="m32 269.664062h64v160h-64zm0 0" fill="#006df0"/><path d="m216.800781 11.058594-10.273437 31.550781c-2.140625 6.59375-8.285156 11.054687-15.214844 11.054687h-33.175781c-6.933594 0-13.078125 4.460938-15.21875 11.054688-2.144531 6.59375.203125 13.816406 5.808593 17.890625l26.847657 19.503906c5.609375 4.074219 7.953125 11.296875 5.808593 17.886719l-10.246093 31.554688c-2.140625 6.589843.207031 13.808593 5.8125 17.878906 5.605469 4.074218 13.195312 4.078125 18.804687.007812l26.839844-19.503906c2.734375-1.988281 6.027344-3.058594 9.40625-3.054688v-146.882812c-6.957031-.0859375-13.140625 4.410156-15.199219 11.058594zm0 0" fill="#f7941d"/><path d="m305.863281 53.664062h-33.175781c-6.925781-.007812-13.058594-4.46875-15.199219-11.054687l-10.289062-31.550781c-2.058594-6.648438-8.242188-11.1445315-15.199219-11.058594v146.882812c3.378906-.003906 6.671875 1.066407 9.40625 3.054688l26.839844 19.503906c5.609375 4.070313 13.199218 4.066406 18.804687-.007812 5.605469-4.070313 7.953125-11.289063 5.8125-17.878906l-10.246093-31.554688c-2.144532-6.589844.199218-13.8125 5.808593-17.886719l26.847657-19.503906c5.605468-4.074219 7.953124-11.296875 5.808593-17.890625-2.140625-6.59375-8.285156-11.054688-15.21875-11.054688zm0 0" fill="#fbb040"/><path d="m208 325.664062c-4.417969 0-8 3.582032-8 8 0 4.417969 3.582031 8 8 8h48c4.417969 0 8-3.582031 8-8 0-4.417968-3.582031-8-8-8h-16v-72c0-3.234374-1.949219-6.148437-4.9375-7.386718-2.988281-1.238282-6.429688-.554688-8.71875 1.730468l-24 24c-3.03125 3.140626-2.988281 8.128907.097656 11.214844 3.085938 3.085938 8.074219 3.128906 11.214844.097656l10.34375-10.34375v52.6875zm0 0" fill="#f1f2f2"/></svg>