<svg height="511pt" viewBox="-96 0 511 511.99962" width="511pt" xmlns="http://www.w3.org/2000/svg"><path d="m287.644531 504.386719-13.195312-50.480469-80.53125-46.6875h-66.96875l-80.53125 46.6875-13.195313 50.480469" fill="#6198ce"/><path d="m218.257812 421.328125-10.796874 53.894531-47.015626-34.507812-47.035156 34.507812-10.789062-53.894531 24.328125-14.109375h66.980469zm0 0" fill="#e83842"/><path d="m193.941406 369.226562v37.992188c0 14.492188-9.199218 26.824219-22.078125 31.496094-3.5625 1.296875-7.410156 2-11.417969 2h-.011718c-18.492188 0-33.484375-14.992188-33.484375-33.496094v-37.980469zm0 0" fill="#e8b094"/><path d="m193.941406 393.210938v14.007812c0 14.492188-9.199218 26.824219-22.078125 31.496094-12.878906-4.660156-22.074219-17.003906-22.074219-31.496094v-9.621094c3.5.324219 7.050782.484375 10.644532.484375 11.644531 0 22.890625-1.703125 33.507812-4.871093zm0 0" fill="#ffdbcc"/><path d="m277.277344 233.046875c1.503906-.234375 3.074218-.34375 4.710937-.34375 18.675781 0 30.773438 15.132813 30.773438 33.808594s-17.40625 44.191406-36.082031 44.191406c-4.203126 0-7.695313-1.289063-10.585938-3.5h-211.3125c-2.890625 2.210937-6.382812 3.5-10.585938 3.5-18.675781 0-36.082031-25.515625-36.082031-44.191406s12.097657-33.808594 30.773438-33.808594c1.636719 0 3.207031.109375 4.710937.34375" fill="#e8b094"/><path d="m300.777344 133.746094v105.15625l-194.078125-.792969-84.75-.347656v-136.597657c0-22.226562 21.507812-38.09375 42.742187-31.546874 11.953125-38 46.992188-61.953126 84.40625-61.953126 10.261719 0 20.683594 1.796876 30.867188 5.601563.445312.164063.890625.335937 1.339844.507813l51.246093 20.035156c41.148438 16.089844 68.226563 55.753906 68.226563 99.9375zm0 0" fill="#545d68"/><path d="m106.304688 84.449219c0 35.523437 28.835937 75.027343 28.835937 75.027343l-28.441406 78.632813-84.75-.347656v-136.597657c0-22.226562 21.507812-38.09375 42.742187-31.546874 11.953125-38 46.992188-61.953126 84.40625-61.953126 10.261719 0 20.683594 1.796876 30.867188 5.601563-38.9375-13.945313-73.660156 36.0625-73.660156 71.183594zm0 0" fill="#3b454f"/><path d="m71.898438 115.542969c66.886718 72.832031 205.382812 75.878906 205.382812 75.878906v65.863281c0 32.265625-13.082031 61.46875-34.226562 82.609375-21.140626 21.152344-50.351563 34.226563-82.621094 34.226563-64.523438 0-116.835938-52.3125-116.835938-116.835938v-65.507812c0-29.140625 10.65625-55.773438 28.296875-76.238282 0 0 0 0 .003907.003907zm0 0" fill="#ffdbcc"/><path d="m83.007812 257.285156v-65.507812c0-19.695313 4.871094-38.238282 13.472657-54.511719-8.878907-6.445313-17.171875-13.65625-24.582031-21.722656-.003907 0-.003907 0-.003907 0-17.640625 20.460937-28.296875 47.09375-28.296875 76.234375v65.507812c0 64.523438 52.3125 116.835938 116.835938 116.835938 6.71875 0 13.300781-.574219 19.707031-1.660156-55.140625-9.367188-97.132813-57.367188-97.132813-115.175782zm0 0" fill="#e8b094"/><path d="m139.585938 456.011719 20.859374 30.714843 20.859376-30.714843-20.871094-15.296875zm0 0" fill="#fc5f61"/><path d="m189.875 317.390625h36.539062c0-16.253906-13.179687-29.433594-29.433593-29.433594h-36.539063c0 16.253907 13.175782 29.433594 29.433594 29.433594zm0 0" fill="#545d68"/><path d="m131.003906 317.390625h-36.539062c0-16.253906 13.179687-29.433594 29.433594-29.433594h36.542968c0 16.253907-13.179687 29.433594-29.4375 29.433594zm0 0" fill="#545d68"/><path d="m176.710938 229.523438c0 22.15625 17.964843 40.109374 40.125 40.109374 17.304687 0 32.054687-10.949218 37.6875-26.308593 1.570312-4.300781 2.433593-8.949219 2.433593-13.800781 0-22.167969-17.964843-26.15625-40.121093-26.15625-5.777344 0-11.277344.273437-16.242188 1.074218-14.066406 2.242188-23.882812 8.699219-23.882812 25.082032zm0 0" fill="#72cec0"/><path d="m63.914062 229.523438c0 22.15625 17.957032 40.109374 40.113282 40.109374 17.316406 0 32.0625-10.949218 37.675781-26.308593 1.585937-4.300781 2.445313-8.949219 2.445313-13.800781 0-22.167969-17.953126-26.15625-40.121094-26.15625-5.777344 0-11.265625.273437-16.230469 1.074218-14.066406 2.242188-23.882813 8.699219-23.882813 25.082032zm0 0" fill="#72cec0"/><path d="m200.574219 205.648438c0 22.167968 17.964843 40.125 40.125 40.125 4.859375 0 9.519531-.863282 13.824219-2.449219 1.570312-4.300781 2.433593-8.949219 2.433593-13.800781 0-22.167969-17.964843-26.15625-40.121093-26.15625-5.777344 0-11.277344.273437-16.242188 1.074218-.007812.394532-.019531.800782-.019531 1.207032zm0 0" fill="#c9fff7"/><path d="m87.777344 205.648438c0 22.167968 17.957031 40.125 40.125 40.125 4.851562 0 9.5-.863282 13.800781-2.449219 1.585937-4.300781 2.449219-8.949219 2.449219-13.800781 0-22.167969-17.957032-26.15625-40.125-26.15625-5.773438 0-11.265625.273437-16.230469 1.074218-.007813.394532-.019531.800782-.019531 1.207032zm0 0" fill="#c9fff7"/><path d="m248.4375 345.277344c8.417969-8.417969 15.472656-17.832032 21.074219-27.96875 2.269531.65625 4.660156 1.007812 7.167969 1.007812 23.121093 0 43.695312-28.96875 43.695312-51.804687 0-12.652344-4.488281-23.46875-11.988281-30.875v-60.855469c0-4.203125-3.40625-7.609375-7.613281-7.609375-4.203126 0-7.609376 3.40625-7.609376 7.609375v51.894531c-2.625-.773437-5.390624-1.273437-8.269531-1.472656v-50.023437c0-4.203126-3.40625-7.613282-7.613281-7.613282-4.203125 0-7.613281 3.410156-7.613281 7.613282v8.234374c-29.71875-1.957031-137.121094-13.085937-192.160157-73.023437-.628906-.679687-1.378906-1.246094-2.207031-1.660156-3.117187-1.558594-6.894531-.800781-9.171875 1.839843-19.4375 22.546876-30.144531 51.386719-30.144531 81.207032v33.421875c-2.214844.15625-4.363281.484375-6.429687.984375v-125.019532c0-8.152343 3.761718-15.597656 10.320312-20.4375 6.554688-4.839843 14.785156-6.234374 22.570312-3.832031 4 1.234375 8.25-.992187 9.503907-4.988281 6.796875-21.601562 21.789062-38.882812 42.210937-48.664062s43.285156-10.628907 64.375-2.378907l51.238282 20.035157c18.757812 7.332031 34.671874 20 46.03125 36.636718 11.355468 16.632813 17.359374 36.070313 17.359374 56.210938v17.691406c0 4.203125 3.40625 7.613281 7.609376 7.613281 4.207031 0 7.613281-3.410156 7.613281-7.613281v-17.691406c0-23.21875-6.917969-45.621094-20.007813-64.796875-13.089844-19.171875-31.441406-33.777344-53.0625-42.230469l-51.238281-20.035156c-25.058594-9.800782-52.226563-8.796875-76.496094 2.828125-22.171875 10.617187-38.957031 28.679687-47.847656 51.292969-10.191406-1.246094-20.417969 1.414062-28.902344 7.671874-10.488281 7.738282-16.503906 19.652344-16.503906 32.6875v132.777344c-8.597656 7.398438-13.828125 18.917969-13.828125 32.570313 0 22.835937 20.574219 51.804687 43.695312 51.804687 2.507813 0 4.898438-.347656 7.167969-1.007812 5.601563 10.140625 12.65625 19.558594 21.074219 27.972656 2.972656 2.972656 7.792969 2.972656 10.761719 0 2.976562-2.972656 2.976562-7.792969 0-10.761719-20.628907-20.632812-31.992188-48.058593-31.992188-77.234375v-20.15625h5.710938c3.65625 22.714844 23.390625 40.125 47.121093 40.125 24.890626 0 45.378907-19.152344 47.535157-43.492187 5.539062-2.9375 12.191406-2.9375 17.730469 0 2.15625 24.339843 22.644531 43.488281 47.535156 43.488281 23.726562 0 43.460937-17.40625 47.117187-40.121094h5.710938v20.15625c0 29.167969-11.363281 56.59375-31.996094 77.226563-20.625 20.632812-48.054687 31.996093-77.238281 31.996093-21.886719 0-43.003906-6.449218-61.0625-18.648437-3.484375-2.355469-8.214844-1.4375-10.566406 2.042969-2.355469 3.484375-1.441407 8.21875 2.042968 10.570312 8.914063 6.023438 18.484375 10.808594 28.488282 14.308594v28.050781l-76.738282 44.488281c-1.753906 1.019532-3.03125 2.699219-3.546875 4.664063l-13.195312 50.476563c-1.0625 4.066406 1.375 8.226562 5.441406 9.289062.644531.167969 1.292969.25 1.929687.25 3.378907 0 6.464844-2.269531 7.359376-5.6875l12.390624-47.410156 44.257813-25.65625 8.707031 43.472656c.511719 2.550781 2.289063 4.660156 4.710938 5.601562 2.425781.941407 5.160156.578126 7.257812-.960937l19.8125-14.539063 16.421875 24.183594c1.414063 2.085938 3.773438 3.335938 6.296875 3.335938 2.523438 0 4.882813-1.25 6.296875-3.335938l16.417969-24.171875 19.796875 14.527344c1.324219.972656 2.90625 1.476563 4.503906 1.476563.925781 0 1.859375-.167969 2.75-.515626 2.425781-.941406 4.203125-3.054687 4.710938-5.601562l8.710937-43.476562 44.257813 25.660156 12.390625 47.40625c.894531 3.421875 3.980468 5.691406 7.359375 5.691406.640625 0 1.285156-.082031 1.929687-.25 4.070313-1.066406 6.503906-5.222656 5.441406-9.292969l-13.195312-50.476562c-.515625-1.960938-1.789062-3.640625-3.546875-4.660157l-76.714844-44.476562v-28.039062c17.449219-6.085938 33.441407-16.070313 46.886719-29.527344zm56.710938-78.765625c0 15.109375-14.722657 36.582031-28.46875 36.582031-.15625 0-.304688-.011719-.457032-.015625 2.203125-5.574219 4-11.308594 5.371094-17.171875 1.703125-6.097656 6.226562-15.820312 11.132812-15.820312 4.203126 0 7.613282-3.410157 7.613282-7.613282s-3.410156-7.613281-7.613282-7.613281c-2.894531 0-5.492187.605469-7.832031 1.625v-15.980469c10.238281 1.304688 20.253907 9.566406 20.253907 26.007813zm-260.953126 36.582031c-13.746093 0-28.46875-21.472656-28.46875-36.582031 0-16.445313 10.019532-24.703125 20.257813-26.007813v15.984375c-2.339844-1.023437-4.941406-1.628906-7.835937-1.628906-4.203126 0-7.613282 3.410156-7.613282 7.613281s3.410156 7.613282 7.613282 7.613282c4.921874 0 9.457031 9.78125 11.148437 15.875 1.371094 5.84375 3.160156 11.5625 5.355469 17.117187-.152344.003906-.300782.015625-.457032.015625zm59.84375-41.066406c-17.925781 0-32.507812-14.585938-32.507812-32.511719 0-11.742187 5.316406-18.539063 32.507812-18.539063 27.191407 0 32.507813 6.796876 32.507813 18.539063 0 17.925781-14.582031 32.511719-32.507813 32.511719zm112.800782 0c-17.925782 0-32.507813-14.585938-32.507813-32.511719 0-11.742187 5.320313-18.539063 32.507813-18.539063s32.507812 6.796876 32.507812 18.539063c0 17.925781-14.582031 32.511719-32.507812 32.511719zm47.046875-40.121094c-4.867188-26.132812-35.058594-26.15625-47.046875-26.15625-11.347656 0-39.027344.015625-46.070313 22.195312-6.71875-2.132812-13.941406-2.132812-20.660156 0-7.042969-22.183593-34.71875-22.195312-46.070313-22.195312-11.984374 0-42.179687.023438-47.046874 26.15625h-5.78125v-30.128906c0-23.371094 7.492187-46.058594 21.246093-64.738282 28.796875 28.09375 70.964844 48.65625 125.511719 61.175782 31.957031 7.335937 59.117188 9.71875 71.699219 10.476562v23.214844zm-152.738281 203.273438 10.023437-5.8125c3.402344 10.980468 11.292969 20.007812 21.519531 24.921874l-24.164062 17.734376zm49.296874 47.996093-10.4375-15.367187 10.425782-7.652344 10.441406 7.660156zm41.894532-11.152343-24.15625-17.726563c10.230468-4.914063 18.125-13.9375 21.53125-24.917969l10.007812 5.800782zm-16.011719-55.273438c-.015625.261719-.019531.527344-.007813.789062-.175781 14.125-11.710937 25.5625-25.886718 25.5625-14.265625 0-25.871094-11.613281-25.871094-25.882812v-28.199219c8.441406 1.785157 17.101562 2.714844 25.871094 2.714844 8.808594 0 17.472656-.917969 25.894531-2.691406zm0 0"/><path d="m86.851562 317.390625c0 4.203125 3.410157 7.613281 7.613282 7.613281h36.539062c11.988282 0 22.660156-5.730468 29.4375-14.585937 6.773438 8.855469 17.445313 14.585937 29.433594 14.585937h36.539062c4.207032 0 7.613282-3.410156 7.613282-7.613281 0-20.429687-16.621094-37.046875-37.046875-37.046875h-18.382813c2.339844-2.988281 2.140625-7.320312-.609375-10.070312-2.972656-2.972657-7.792969-2.972657-10.765625 0-1.8125 1.8125-4.222656 2.808593-6.785156 2.808593s-4.972656-.996093-6.785156-2.808593c-2.972656-2.972657-7.792969-2.972657-10.765625 0-2.75 2.75-2.949219 7.082031-.609375 10.070312h-18.378906c-20.425782 0-37.046876 16.617188-37.046876 37.046875zm44.152344-7.613281h-27.554687c3.09375-8.289063 11.09375-14.210938 20.449219-14.210938h27.558593c-3.097656 8.292969-11.097656 14.210938-20.453125 14.210938zm86.429688 0h-27.558594c-9.355469 0-17.355469-5.917969-20.453125-14.210938h27.558594c9.355469 0 17.355469 5.921875 20.453125 14.210938zm0 0"/></svg>