<svg height="511pt" viewBox="-118 0 511 511.998" width="511pt" xmlns="http://www.w3.org/2000/svg"><path d="m268.015625 437.988281v58.828125c0 4.207032-3.402344 7.632813-7.582031 7.632813h-233.980469c-4.1875 0-7.589844-3.421875-7.589844-7.632813v-58.828125c0-29.820312 19.460938-56.089843 47.851563-64.605469l13.449218-4.027343c6.828126-2.042969 12.460938-6.503907 16.089844-12.285157 2.25-3.582031 3.71875-7.660156 4.21875-12 .140625-1.128906.210938-2.265624.210938-3.421874v-23.148438l78.859375-17.640625v38.785156c0 7.378907 2.78125 14.257813 7.472656 19.441407 3.4375 3.804687 7.910156 6.714843 13.046875 8.265624l20.113281 6.03125c28.386719 8.515626 47.839844 34.785157 47.839844 64.605469zm0 0" fill="#ffdba9"/><path d="m179.542969 300.859375v32.734375c-13.300781 8.960938-29.289063 14.175781-46.480469 14.175781h-11.5c-7.277344 0-14.347656-.9375-21.089844-2.699219.140625-1.128906.210938-2.265624.210938-3.421874v-23.148438zm0 0" fill="#ffc473"/><path d="m132.78125 325.621094h-10.933594c-46.402344 0-84.019531-37.617188-84.019531-84.019532v-190.328124h178.972656v190.328124c0 46.402344-37.617187 84.019532-84.019531 84.019532zm0 0" fill="#ffdba9"/><path d="m226.121094 223.921875h-9.320313v-61.433594h9.320313c15.820312 0 28.644531 12.824219 28.644531 28.644531v4.144532c0 15.820312-12.824219 28.644531-28.644531 28.644531zm0 0" fill="#ffc473"/><path d="m155.785156 7.550781v73.277344c0 9.019531 3.5625 17.671875 9.898438 24.050781l11.175781 11.253906c7.34375 7.394532 11.46875 17.421876 11.46875 27.878907v5.929687c0 6.929688 5.578125 12.546875 12.460937 12.546875h16.011719v-112.621093c0-23.371094-18.816406-42.316407-42.03125-42.316407zm0 0" fill="#715539"/><path d="m45.304688 85.019531h75.902343c19.097657 0 34.582031-15.585937 34.582031-34.816406v-42.652344l-145.6875 32.519531c-1.226562.273438-2.101562 1.371094-2.101562 2.640626v4.75c0 20.742187 16.699219 37.558593 37.304688 37.558593zm0 0" fill="#8a6745"/><path d="m268.007812 437.984375v28.699219h-47.148437v37.765625h-153.367187v-37.765625h-48.625v-28.699219c0-29.8125 19.460937-56.089844 47.84375-64.597656l13.457031-4.035157c6.828125-2.046874 12.460937-6.5 16.082031-12.277343 11.832031 4.820312 27.988281 9.378906 47.332031 9.5 16.617188.097656 31.238281-3.109375 43.433594-7.488281 3.4375 3.808593 7.90625 6.714843 13.046875 8.261718l20.113281 6.035156c28.382813 8.511719 47.832031 34.789063 47.832031 64.601563zm0 0" fill="#4c95f9"/><path d="m200.0625 367.351562 8.152344 2.445313c-18.441406 6.152344-40.140625 10.503906-64.550782 10.359375-24.820312-.148438-46.339843-4.910156-63.601562-10.769531l.101562-.03125c6.828126-2.042969 12.460938-6.503907 16.089844-12.285157 11.832032 4.824219 27.988282 9.386719 47.332032 9.503907 16.617187.101562 31.238281-3.109375 43.429687-7.488281 3.4375 3.804687 7.910156 6.714843 13.046875 8.265624zm0 0" fill="#004eb2"/><path d="m260.753906 393.183594c-9.65625-13.042969-22.949218-22.390625-38.4375-27.039063l-20.101562-6.027343c-3.710938-1.121094-7.046875-3.234376-9.652344-6.113282-.007812-.011718-.015625-.019531-.027344-.03125-2.769531-3.074218-4.578125-6.863281-5.226562-10.960937-.652344-4.117188-4.496094-6.921875-8.585938-6.269531-4.089844.65625-6.878906 4.527343-6.226562 8.644531.519531 3.296875 1.496094 6.472656 2.863281 9.460937-10.394531 2.835938-21.039063 4.253906-31.730469 4.175782-12.640625-.078126-25.117187-2.171876-37.199218-6.226563 1.144531-3.582031 1.753906-7.335937 1.753906-11.152344v-9.460937c4.414062.652344 8.890625.984375 13.378906.984375h11.5c18.132812 0 35.648438-5.34375 50.648438-15.449219 25.417968-17.097656 40.59375-45.65625 40.59375-76.402344v-9.847656h1.914062c19.875 0 36.046875-16.28125 36.046875-36.292969v-3.945312c0-20.011719-16.171875-36.292969-36.046875-36.292969h-1.917969v-18.421875c0-4.171875-3.359375-7.550781-7.5-7.550781s-7.5 3.378906-7.5 7.550781v18.421875h-8.511719c-2.734374 0-4.960937-2.242188-4.960937-4.996094v-5.933594c0-12.546874-4.855469-24.34375-13.667969-33.21875l-11.175781-11.25c-4.960937-5-7.695313-11.644531-7.695313-18.714843v-65.722657h11.484376c19.039062 0 34.527343 15.59375 34.527343 34.765626v53.089843c0 4.167969 3.359375 7.550781 7.5 7.550781s7.5-3.382812 7.5-7.550781v-53.089843c0-27.496094-22.21875-49.867188-49.53125-49.867188h-18.984375c-.261718 0-.523437.015625-.78125.0429688-.007812 0-.015625.0039062-.023437.0039062-.265625.0273438-.523438.070313-.78125.125-.011719.003906-.023438.003906-.035157.007813l-145.6875 32.519531c-4.695312 1.046875-7.976562 5.164062-7.976562 10.011719v4.75c0 19.585937 12.464844 36.289062 29.824219 42.507812v22.382812c0 4.171876 3.359375 7.550782 7.5 7.550782s7.5-3.378906 7.5-7.550782v-19.78125h75.882812c10.328125 0 19.792969-3.769531 27.121094-10.007812.425781 10.449219 4.660156 20.214844 12.050781 27.65625l11.175782 11.253906c5.980468 6.019532 9.273437 14.023438 9.273437 22.539063v5.929687c0 11.082032 8.953125 20.097656 19.960937 20.097656h8.511719v53.878907c0 .019531.003907.039062.003907.058593v17.339844c0 25.691406-12.683594 49.558594-33.933594 63.847656-12.523438 8.441407-27.152344 12.902344-42.308594 12.902344h-11.5c-5.984375 0-11.929688-.699218-17.675781-2.074218-.054688-.011719-.113281-.023438-.167969-.035157-34.390625-8.3125-58.394531-38.984375-58.394531-74.640625v-97.753906c0-4.167969-3.359375-7.550781-7.5-7.550781s-7.5 3.382812-7.5 7.550781v97.753906c0 20.789063 7.09375 41.15625 19.976562 57.355469 11.101563 13.964844 26.132813 24.417969 42.882813 29.957031v13.015625c0 4.042969-1.128906 7.980469-3.269532 11.386719-2.753906 4.386719-6.976562 7.613281-11.886718 9.082031l-13.457032 4.027344c-15.488281 4.648437-28.78125 14-38.441406 27.039063-9.660156 13.042968-14.765625 28.535156-14.765625 44.808593v58.828125c0 8.371094 6.769531 15.179688 15.089844 15.179688h233.980469c8.3125 0 15.078125-6.808594 15.078125-15.179688v-58.828125c0-16.269531-5.101563-31.765625-14.757813-44.804687zm-139.550781-315.714844h-75.898437c-16.4375 0-29.808594-13.460938-29.808594-30.007812v-.859376l132.789062-29.640624v33.242187c0 15.035156-12.148437 27.265625-27.082031 27.265625zm126.0625 113.761719v3.949219c0 11.683593-9.441406 21.1875-21.046875 21.1875h-1.914062v-46.324219h1.914062c11.605469 0 21.046875 9.503906 21.046875 21.1875zm-220.902344 305.585937v-22.582031h33.628907v22.664063h-33.539063c-.058594 0-.089844-.054688-.089844-.082032zm48.628907.082032v-30.214844c0-4.171875-3.359376-7.550782-7.5-7.550782h-41.128907v-21.144531c0-26.269531 17.472657-49.863281 42.488281-57.367187l13.449219-4.027344c6.378907-1.910156 12.070313-5.550781 16.5-10.46875 14.472657 5.214844 29.496094 7.90625 44.738281 8 .257813.003906.515626.003906.773438.003906 13.824219 0 27.53125-2.167968 40.820312-6.441406 3.742188 3.125 8.085938 5.480469 12.789063 6.902344l20.109375 6.027344c25.011719 7.503906 42.480469 31.097656 42.480469 57.371093v21.144531h-39.652344c-4.144531 0-7.5 3.378907-7.5 7.550782v30.214844zm185.441406 0h-32.074219v-22.664063h32.15625v22.582031c-.003906.039063-.042969.082032-.082031.082032zm0 0"/><path d="m83.421875 181.558594c0-4.945313-3.984375-8.953125-8.894531-8.953125-4.914063 0-8.894532 4.007812-8.894532 8.953125 0 4.945312 3.980469 8.953125 8.894532 8.953125 4.910156 0 8.894531-4.007813 8.894531-8.953125zm0 0"/><path d="m154.578125 181.558594c0-4.945313-3.980469-8.953125-8.890625-8.953125-4.914062 0-8.894531 4.007812-8.894531 8.953125 0 4.945312 3.980469 8.953125 8.894531 8.953125 4.910156 0 8.890625-4.007813 8.890625-8.953125zm0 0"/><path d="m130.652344 250.359375c-1.914063 2.789063-6.1875 7.863281-13.371094 10.515625-9.386719 3.460938-17.742188.652344-20.898438-.714844-3.800781-1.648437-8.214843.117188-9.855468 3.949219-1.636719 3.828125.121094 8.269531 3.921875 9.921875 3.101562 1.34375 9.5 3.597656 17.535156 3.597656 4.417969 0 9.332031-.683594 14.457031-2.574218 11.078125-4.089844 17.632813-11.855469 20.554688-16.121094 2.355468-3.429688 1.496094-8.132813-1.914063-10.503906-3.410156-2.367188-8.078125-1.503907-10.429687 1.929687zm0 0"/></svg>