<svg height="511pt" viewBox="-126 0 511 511.99946" width="511pt" xmlns="http://www.w3.org/2000/svg"><path d="m252.074219 497.03125-133.566407-77.605469-46.417968-36.3125c-28.6875-22.445312-45.445313-56.84375-45.4375-93.265625l.042968-160.421875c0-67.320312 50.605469-121.890625 113.027344-121.890625 62.417969 0 113.023438 54.570313 113.023438 121.890625zm0 0" fill="#ff9a01"/><path d="m165.421875 336.359375c-3.027344 24.609375 2.0625 40.855469 7.277344 51.167969 8.78125 17.375 18.300781 18.5625 28.914062 40.011718v.011719l-.101562 69.476563-79.429688-46.148438-27.605469-21.589844c-17.054687-13.351562-27.023437-33.804687-27.015624-55.464843l.019531-144.199219c0-40.03125 30.105469-23.695312 67.21875-23.695312 16.679687 0 31.953125-3.300782 43.703125-3.300782 14.386718 0 23.511718 4.953125 23.511718 26.992188l-.132812 87.398437zm0 0" fill="#ff8505"/><path d="m252.078125 439.792969v57.234375c0 4.097656-3.332031 7.425781-7.425781 7.425781h-229.175782c-4.105468 0-7.433593-3.328125-7.433593-7.425781v-57.234375c0-29.003907 19.066406-54.570313 46.863281-62.851563l13.179688-3.921875c6.691406-1.980469 12.203124-6.316406 15.753906-11.941406 1.519531-2.394531 2.667968-5.019531 3.410156-7.796875.613281-2.316406.9375-4.738281.9375-7.214844v-26.175781l77.234375-13.492187v37.726562c0 7.171875 2.730469 13.863281 7.316406 18.914062 3.378907 3.703126 7.746094 6.53125 12.785157 8.039063l19.699218 5.863281c27.796875 8.28125 46.855469 33.847656 46.855469 62.851563zm0 0" fill="#ffdba9"/><path d="m205.222656 376.941406-19.699218-5.863281c-5.039063-1.507813-9.40625-4.335937-12.785157-8.039063-4.589843-5.050781-7.316406-11.742187-7.316406-18.914062v-37.726562l-77.234375 13.492187v11.019531l52.003906-9.085937v37.726562c0 7.175781 2.726563 13.863281 7.3125 18.914063 3.382813 3.703125 7.746094 6.53125 12.789063 8.039062l19.699219 5.867188c27.796874 8.277344 46.851562 33.84375 46.851562 62.847656v49.234375h17.808594c4.09375 0 7.425781-3.328125 7.425781-7.425781v-57.234375c0-29.003907-19.058594-54.570313-46.855469-62.851563zm0 0" fill="#ffc473"/><path d="m165.421875 306.398438v35.402343c-13.570313 9.367188-30.019531 14.839844-47.746094 14.839844h-6.8125c-8.199219 0-16.125-1.167969-23.613281-3.359375.617188-2.316406.9375-4.738281.9375-7.214844v-26.175781zm0 0" fill="#ffc473"/><path d="m201.914062 173.695312v72.539063c0 46.53125-37.707031 84.246094-84.238281 84.246094h-6.8125c-46.53125 0-84.25-37.714844-84.25-84.246094v-94.894531l56.269531-43.160156 99 54.488281zm0 0" fill="#ffdba9"/><path d="m205.035156 229.621094h-3.117187v-55.917969h3.117187c15.441406 0 27.960938 12.515625 27.960938 27.960937 0 15.441407-12.519532 27.957032-27.960938 27.957032zm0 0" fill="#ffc473"/><path d="m205.222656 376.949219-18.253906-5.441407v132.945313h57.683594c4.09375 0 7.421875-3.328125 7.421875-7.421875v-57.234375c0-29.007813-19.050781-54.570313-46.851563-62.847656zm0 0" fill="#00989e"/><path d="m64.429688 374.113281-9.519532 2.835938c-27.800781 8.277343-46.863281 33.839843-46.863281 62.84375v57.238281c0 4.09375 3.332031 7.421875 7.433594 7.421875h48.949219zm0 0" fill="#00989e"/><path d="m64.429688 425.511719h122.539062v78.941406h-122.539062zm0 0" fill="#9dfdff"/><path d="m64.429688 425.511719h122.539062v16.113281h-122.539062zm0 0" fill="#fff"/><path d="m51.460938 53.285156c6.265624 16.804688 26.210937 63.417969 76.347656 94.484375 28.949218 17.933594 56.828125 23.789063 74.109375 25.929688" fill="#ff9a01"/><path d="m82.886719 108.179688c-3.984375 7.027343-13.078125 20.660156-27.828125 30.664062-10.820313 7.335938-21.195313 10.78125-28.222656 12.496094l-.214844-15.394532zm0 0" fill="#ff9a01"/><path d="m201.78125 317.023438-.167969 110.515624c-10.617187-21.449218-20.132812-22.636718-28.917969-40.011718-5.210937-10.3125-10.300781-26.558594-7.273437-51.167969zm0 0" fill="#ff8505"/><path d="m252.078125 290.269531v214.183594h-37.992187c.96875-9.074219 1.429687-21.4375-.550782-35.855469-1.058594-7.6875-3.300781-23.152344-11.421875-40.023437-.167969-.351563-.332031-.695313-.5-1.027344v-.007813l.167969-110.519531zm0 0" fill="#ff9a01"/><path d="m225.175781 38.109375c-18.792969-20.273437-44.121093-33.933594-71.652343-37.285156-26.042969-3.175781-52.695313 2.910156-74.863282 16.917969-12.90625 8.15625-24.15625 18.792968-33.25 31.046874-16.933594 22.777344-26.261718 51.417969-26.261718 80.636719v9.035157c-.046876.335937-.078126.679687-.078126 1.027343v27.3125c-1.546874 1.910157-2.476562 4.335938-2.476562 6.976563v36.140625c0 2.644531.929688 5.070312 2.476562 6.980469v29.335937c0 1.148437.015626 2.050781.050782 2.890625l-.011719 40.71875c-.007813 29.65625 10.6875 58.617188 29.671875 81.1875-13.507812 4.863281-25.128906 13.457031-33.777344 25.054688-9.488281 12.726562-14.503906 27.835937-14.503906 43.707031v57.234375c0 8.257812 6.71875 14.972656 14.980469 14.972656h236.597656c4.167969 0 7.546875-3.378906 7.546875-7.546875v-7.410156l.671875-367.613281c0-34.480469-12.472656-66.914063-35.121094-91.320313zm-141.382812 82.730469c11.757812 12.949218 25.132812 24.105468 40.042969 33.34375 4.96875 3.078125 10.0625 5.898437 15.261718 8.488281h-25.15625c-6.125 0-11.109375 4.980469-11.109375 11.105469v1.589844h-12.398437v-1.589844c0-6.125-4.984375-11.105469-11.109375-11.105469h-45.089844v-5.574219c8.921875-2.757812 17.332031-6.773437 25.054687-12.007812 9.511719-6.449219 17.859376-14.734375 24.503907-24.25zm123.328125 376.066406h-12.605469v-66.683594c.265625.53125.53125 1.066406.800781 1.625 7.769532 16.148438 9.851563 31.304688 10.742188 37.777344 1.242187 9.042969 1.589844 18.191406 1.0625 27.28125zm-27.703125 0h-107.441407v-18.058594c0-9.714844-15.089843-9.730468-15.089843 0v18.058594h-41.292969v-57.113281c0-25.410157 16.972656-48.230469 41.292969-55.558594v62.921875c0 9.71875 15.089843 9.734375 15.089843 0v-14.101562h107.441407zm-113.480469-131.121094-1.277344.378906c-17.785156-18.75-28.546875-43.457031-30.21875-69.214843 10.910156 16.417969 27 29.265625 46.199219 35.964843v13.152344c0 3.894532-1.097656 7.691406-3.179687 10.980469-2.667969 4.226563-6.757813 7.328125-11.523438 8.738281zm9.402344-159.851562h-43.65625v-28.171875h43.65625zm17 114.742187c-.0625-.015625-.125-.027343-.1875-.042969-33.023438-8.269531-56.828125-37.777343-57.941406-71.832031l.007812-27.773437h45.105469c6.125 0 11.105469-4.984375 11.105469-11.109375v-19.460938h12.402343v19.460938c0 6.125 4.980469 11.109375 11.105469 11.109375h55.070312c6.125 0 11.105469-4.984375 11.105469-11.109375v-32.15625h1.328125c4.257813.96875 8.570313 1.792969 12.925782 2.480469v65.992187c0 25.242187-12.417969 48.867187-33.230469 63.199219-12.800781 8.835937-27.832031 13.503906-43.460938 13.503906h-6.8125c-6.292969 0-12.523437-.761719-18.523437-2.261719zm72.683594-142.914062v28.171875h-47.097657v-28.171875zm55.984374 289.808593c-.984374-7.175781-3.292968-23.980468-12.09375-42.269531-5.71875-11.875-11.246093-18.316406-16.421874-23.90625l-1.375-1.472656c-4.316407-4.613281-8.046876-8.597656-11.683594-15.796875-4.859375-9.613281-7.339844-20.796875-7.371094-33.234375-.011719-4.113281-3.460938-7.527344-7.566406-7.527344-4.167969.011719-7.539063 3.398438-7.527344 7.5625.039062 14.816407 3.066406 28.273438 8.992188 40 4.390624 8.691407 8.988281 13.796875 13.457031 18.582031v8.457032h-107.441407v-38.285156c7.519532-2.660157 13.949219-7.777344 18.242188-14.570313 3.609375-5.699219 5.515625-12.289063 5.515625-19.046875v-9.292969c4.972656.828125 10.035156 1.257813 15.132813 1.257813h6.808593c18.707031 0 36.699219-5.59375 52.027344-16.171875 24.894531-17.144531 39.757813-45.417969 39.757813-75.625v-9.351563c18.597656-2.324218 32.5-19.457031 30.960937-38.128906-1.5-18.160156-17.152344-32.597656-35.382813-32.597656h-2.605468c-6.089844-.769532-12.078125-1.828125-17.960938-3.179688-.265625-.078125-.539062-.140625-.820312-.1875-47.484375-11.128906-87.769532-42.074218-111.984375-84.222656-2.074219-3.617188-6.691407-4.859375-10.300781-2.785156-3.613282 2.078125-4.859376 6.691406-2.78125 10.304687 4.597656 8.003907 9.652343 15.550781 15.117187 22.660157-5.910156 9.464843-13.761719 17.667968-22.878906 23.851562-5.183594 3.515625-10.738281 6.367188-16.582031 8.5625v-11.730469c0-26 8.269531-51.441406 23.285156-71.644531 28.382812-38.238281 79.71875-53.910156 123.628906-33.574219 12.453125 5.769531 23.632812 14.105469 32.953125 24.160157 20.054687 21.609374 31.097656 50.398437 31.097656 81.046874l-.292969 158.488282c-.246093.742187-.382812 1.539062-.382812 2.363281v206.640625h-22.28125c.511719-9.78125.097656-19.613281-1.242188-29.335938zm-11.542968-245.980468v-39.859375c20.757812 4.613281 20.761718 35.25 0 39.859375zm0 0"/><path d="m71.277344 190.332031c0 4.808594-3.902344 8.710938-8.710938 8.710938-4.8125 0-8.710937-3.902344-8.710937-8.710938 0-4.8125 3.898437-8.710937 8.710937-8.710937 4.808594 0 8.710938 3.898437 8.710938 8.710937zm0 0"/><path d="m140.972656 190.332031c0 4.808594-3.898437 8.710938-8.710937 8.710938-4.808594 0-8.710938-3.902344-8.710938-8.710938 0-4.8125 3.902344-8.710937 8.710938-8.710937 4.8125 0 8.710937 3.898437 8.710937 8.710937zm0 0"/><path d="m129.792969 265.71875c2.367187-3.429688 1.507812-8.128906-1.921875-10.496094-3.433594-2.367187-8.128906-1.503906-10.496094 1.925782-1.863281 2.695312-6.023438 7.597656-13 10.15625-9.128906 3.34375-17.253906.628906-20.324219-.691407-3.828125-1.648437-8.265625.121094-9.914062 3.945313-1.648438 3.828125.121093 8.265625 3.949219 9.914062 3.050781 1.316406 9.347656 3.515625 17.25 3.515625 4.347656 0 9.183593-.664062 14.230468-2.515625 10.898438-3.992187 17.351563-11.582031 20.226563-15.753906zm0 0"/></svg>