<svg height="511pt" viewBox="-69 0 511 511.997" width="511pt" xmlns="http://www.w3.org/2000/svg"><path d="m187.226562 373.941406c-98.972656 0-179.210937-80.238281-179.210937-179.210937v-8.003907c0-98.972656 80.238281-179.210937 179.210937-179.210937 98.976563 0 179.210938 80.238281 179.210938 179.210937v8.003907c.003906 98.972656-80.234375 179.210937-179.210938 179.210937zm0 0" fill="#57555c"/><path d="m187.226562 7.515625c-9.273437 0-18.386718.703125-27.28125 2.0625 86.027344 13.140625 151.929688 87.449219 151.929688 177.148437v8c0 89.703126-65.902344 164.007813-151.929688 177.148438 8.894532 1.359375 18.007813 2.066406 27.28125 2.066406 98.976563 0 179.210938-80.238281 179.210938-179.210937v-8.003907c.003906-98.976562-80.234375-179.210937-179.210938-179.210937zm0 0" fill="#3c3b41"/><path d="m301.367188 438.0625v58.796875c0 4.199219-3.417969 7.625-7.628907 7.625h-235.433593c-4.210938 0-7.636719-3.425781-7.636719-7.625v-58.796875c0-26.195312 15.132812-49.648438 38.179687-60.730469 3.179688-1.523437 26.429688-8.871093 27.800782-9.53125 4.941406-2.375 9.03125-6.082031 11.886718-10.613281 2.09375-3.304688 3.519532-7.054688 4.128906-11.035156.21875-1.429688.332032-2.894532.332032-4.378906v-26.464844l79.351562-14.292969v38.753906c0 7.375 2.792969 14.25 7.515625 19.429688 3.464844 3.808593 7.957031 6.714843 13.136719 8.261719l.992188.300781 19.242187 5.730469c3.527344 1.050781 6.914063 2.363281 10.152344 3.929687 22.945312 11.113281 37.980469 34.511719 37.980469 60.640625zm0 0" fill="#b78b6e"/><path d="m165.921875 296.441406h-12.257813c-46.34375 0-83.914062-37.570312-83.914062-83.917968v-40.203126c0-48.21875 39.085938-87.304687 87.304688-87.304687h5.472656c48.21875 0 87.308594 39.085937 87.308594 87.304687v40.203126c0 46.347656-37.570313 83.917968-83.914063 83.917968zm0 0" fill="#6d76e7"/><path d="m212.34375 301.015625v33.785156c-13.296875 8.859375-29.253906 14.007813-46.417969 14.007813h-12.257812c-7.253907 0-14.289063-.921875-21.003907-2.65625.21875-1.429688.332032-2.894532.332032-4.378906v-26.464844zm0 0" fill="#916d59"/><path d="m165.921875 325.757812h-12.257813c-46.34375 0-83.914062-37.570312-83.914062-83.917968v-40.203125c0-48.21875 39.085938-87.308594 87.304688-87.308594h5.472656c48.21875 0 87.308594 39.089844 87.308594 87.308594v40.203125c0 46.34375-37.570313 83.917968-83.914063 83.917968zm0 0" fill="#b78b6e"/><path d="m253.914062 222.140625h-4.078124v-57.445313h4.078124c15.378907 0 27.847657 12.46875 27.847657 27.851563v1.742187c0 15.382813-12.46875 27.851563-27.847657 27.851563zm0 0" fill="#916d59"/><path d="m263.382812 377.421875v127.0625h-174.535156v-127.152344c3.179688-1.523437 6.503906-2.808593 9.960938-3.839843l13.539062-4.027344c1.496094-.441406 2.929688-1.003906 4.300782-1.664063v32.851563c0 32.410156 26.257812 58.675781 58.667968 58.675781 16.191406 0 30.863282-6.574219 41.496094-17.1875 10.613281-10.613281 17.179688-25.285156 17.179688-41.488281v-32.890625l19.238281 5.730469c3.527343 1.054687 6.917969 2.367187 10.152343 3.929687zm0 0" fill="#6d76e7"/><path d="m228.226562 504.484375h-104.890624c0-13.894531 11.261718-25.15625 25.15625-25.15625h54.578124c13.894532 0 25.15625 11.261719 25.15625 25.15625zm0 0" fill="#e2e4f8"/><path d="m319.269531 54.695312c-35.261719-35.269531-82.152343-54.695312-132.039062-54.695312-102.964844 0-186.730469 83.765625-186.730469 186.730469v7.996093c0 52.457032 22.261719 102.800782 61.078125 138.132813 3.070313 2.792969 7.824219 2.570313 10.617187-.5 2.796876-3.070313 2.570313-7.824219-.496093-10.621094-35.695313-32.484375-56.167969-78.777343-56.167969-127.011719v-7.996093c0-94.675781 77.023438-171.699219 171.699219-171.699219 45.871093 0 88.988281 17.859375 121.40625 50.289062 32.425781 32.425782 50.28125 75.542969 50.28125 121.410157v7.996093c0 76.742188-51.195313 144.351563-124.761719 165.199219-3.335938-1.175781-6.34375-3.15625-8.738281-5.785156-3.585938-3.933594-5.558594-9.039063-5.558594-14.371094v-24.152343c22.714844-16.652344 37.492187-43.519532 37.492187-73.777344v-12.351563c17.894532-1.738281 31.929688-16.859375 31.929688-35.199219v-1.746093c0-18.75-14.671875-34.132813-33.140625-35.289063-3.054687-19.207031-11.917969-36.992187-25.746094-51.160156-2.898437-2.96875-7.65625-3.027344-10.628906-.128906-2.972656 2.898437-3.027344 7.65625-.128906 10.628906 7.367187 7.550781 13.0625 16.320312 16.90625 25.839844-17.390625-21.699219-44.105469-35.621094-74.015625-35.621094h-5.472656c-29.851563 0-56.519532 13.867188-73.914063 35.5 11.882813-29.167969 40.527344-49.785156 73.914063-49.785156h5.472656c12.449218 0 24.371094 2.785156 35.433594 8.277344 3.71875 1.847656 8.230468.328124 10.074218-3.390626s.328125-8.226562-3.390625-10.074218c-13.15625-6.53125-27.328125-9.84375-42.117187-9.84375h-5.472656c-52.285157 0-94.824219 42.535156-94.824219 94.820312v40.207032c0 .007812.003906.015624.003906.019531v29.296875c0 40.582031 26.578125 75.066406 63.242187 86.976562v12.957032c0 4.042968-1.140624 7.984374-3.3125 11.425781-.078124.121093-.164062.238281-.242187.359375-8.949219-3.6875-17.617187-8.136719-25.824219-13.289063-3.515625-2.203125-8.152344-1.140625-10.359375 2.371094-2.207031 3.515625-1.148437 8.15625 2.371094 10.363281 6.019531 3.777344 12.273437 7.199219 18.6875 10.269532l-10.136719 3.015624c-2.550781.761719-5.054687 1.664063-7.492187 2.679688-.296875.125-.597657.238281-.890625.363281-.421875.183594-.832032.382813-1.25.570313-.476563.214844-.957032.421875-1.425782.648437h-.003906c0 .003907-.003906.003907-.003906.003907-25.785156 12.398437-42.441406 38.894531-42.441406 67.503906v58.796875c0 8.347656 6.796875 15.140625 15.152344 15.140625h235.4375c8.347656 0 15.140624-6.792969 15.140624-15.140625v-58.796875c0-28.527344-16.574218-54.984375-42.226562-67.40625-2.214844-1.074219-4.515625-2.027344-6.859375-2.882813-.398437-.148437-.792969-.296875-1.195313-.4375 68.953126-28.507812 115.351563-96.425781 115.351563-172.605469v-8c0-49.875-19.421875-96.769531-54.683594-132.03125zm-61.917969 117.808594c9.582032 1.636719 16.894532 10 16.894532 20.042969v1.746094c0 10.039062-7.3125 18.402343-16.894532 20.042969zm-180.085937 69.335938v-40.203125c0-43.996094 35.792969-79.792969 79.792969-79.792969h5.472656c43.96875 0 79.746094 35.753906 79.789062 79.714844v10.96875.039062 29.273438c0 42.128906-34.273437 76.402344-76.398437 76.402344h-12.257813c-42.125-.003907-76.398437-34.273438-76.398437-76.402344zm76.398437 91.433594h12.257813c13.90625 0 27.09375-3.128907 38.90625-8.707032v15.203125c0 9.085938 3.363281 17.785157 9.472656 24.492188 3.421875 3.757812 7.578125 6.738281 12.171875 8.777343v27.613282c0 13.667968-5.316406 26.515625-14.96875 36.167968-7.882812 7.871094-17.867187 12.859376-28.671875 14.445313v-7.324219c0-4.152344-3.367187-7.515625-7.515625-7.515625-4.152344 0-7.519531 3.363281-7.519531 7.515625v7.3125c-24.652344-3.648437-43.632813-24.945312-43.632813-50.601562v-28.523438c1.796876-1.1875 3.496094-2.523437 5.054688-4.015625.039062-.039062.082031-.074219.121094-.109375.027344-.023437.050781-.042968.078125-.070312 2.121093-2.058594 3.96875-4.332032 5.46875-6.730469 3.679687-5.816406 5.621093-12.535156 5.621093-19.429687v-9.453126c4.300782.625 8.691407.953126 13.15625.953126zm-95.480468 163.585937v-58.796875c0-18.585938 8.792968-36.058594 23.148437-47.265625v106.171875h-23.027343c-.066407 0-.121094-.070312-.121094-.109375zm235.664062-58.796875v58.796875c0 .046875-.050781.109375-.109375.109375h-22.835937v-14.96875c0-4.152344-3.367188-7.515625-7.519532-7.515625-4.148437 0-7.515624 3.363281-7.515624 7.515625v14.96875h-159.5v-114.699219c.007812-.003906.015624-.007812.023437-.011719.597656-.230468 1.195313-.445312 1.800781-.65625.152344-.054687.304688-.113281.460938-.167968.761718-.257813 1.527344-.503906 2.300781-.734375l8.179687-2.433594v22.386719c0 36.496094 29.691407 66.191406 66.183594 66.191406 17.660156 0 34.285156-6.882812 46.8125-19.386719 12.496094-12.496093 19.378906-29.117187 19.378906-46.804687v-22.808594l9.578126 2.851562c.796874.238282 1.589843.496094 2.378906.765626.21875.074218.433594.15625.648437.234374.558594.199219 1.117188.398438 1.667969.613282.027344.011718.058594.023437.085938.035156v69.292969c0 4.148437 3.367187 7.515625 7.515624 7.515625 4.152344 0 7.519532-3.367188 7.519532-7.515625v-60.691407c14.230468 11.210938 22.945312 28.621094 22.945312 47.117188zm0 0"/><path d="m115.625 181.777344c0 4.941406-4.007812 8.949218-8.949219 8.949218-4.941406 0-8.949219-4.007812-8.949219-8.949218s4.007813-8.949219 8.949219-8.949219c4.941407 0 8.949219 4.007813 8.949219 8.949219zm0 0"/><path d="m187.226562 181.777344c0 4.941406-4.003906 8.949218-8.949218 8.949218-4.941406 0-8.949219-4.007812-8.949219-8.949218s4.007813-8.949219 8.949219-8.949219c4.945312 0 8.949218 4.007813 8.949218 8.949219zm0 0"/><path d="m175.550781 259.09375c2.355469-3.417969 1.496094-8.101562-1.921875-10.457031-3.417968-2.359375-8.097656-1.496094-10.453125 1.921875-1.925781 2.789062-6.234375 7.867187-13.46875 10.515625-9.457031 3.464843-17.871093.65625-21.046875-.710938-3.8125-1.644531-8.234375.113281-9.878906 3.925781s.117188 8.234376 3.929688 9.878907c3.117187 1.34375 9.550781 3.59375 17.628906 3.59375 4.441406 0 9.382812-.679688 14.539062-2.570313 11.140625-4.082031 17.734375-11.839844 20.671875-16.097656zm0 0"/></svg>