<svg height="511pt" viewBox="-119 0 511 511.99828" width="511pt" xmlns="http://www.w3.org/2000/svg"><path d="m255.398438 68.277344c0 33.574218-27.21875 60.792968-60.792969 60.792968-33.578125 0-60.796875-27.21875-60.796875-60.792968 0-33.578125 27.21875-60.796875 60.796875-60.796875 33.574219 0 60.792969 27.21875 60.792969 60.796875zm0 0" fill="#3c3b41"/><path d="m266.085938 440.15625v56.914062c0 4.074219-3.308594 7.386719-7.382813 7.386719h-227.894531c-4.074219 0-7.386719-3.3125-7.386719-7.386719v-56.914062c0-28.84375 18.949219-54.265625 46.605469-62.5l13.105468-3.902344c6.640626-1.972656 12.136719-6.28125 15.65625-11.875 1.511719-2.382812 2.652344-4.992187 3.382813-7.753906.621094-2.300781.941406-4.710938.941406-7.175781v-26.53125l76.804688-12.914063v37.515625c0 7.132813 2.710937 13.785157 7.285156 18.808594 3.351563 3.683594 7.703125 6.492187 12.703125 7.996094l19.589844 5.832031c27.652344 8.234375 46.589844 33.65625 46.589844 62.5zm0 0" fill="#ffdba9"/><path d="m219.496094 377.65625-19.589844-5.832031c-5.003906-1.5-9.355469-4.3125-12.707031-7.992188-4.570313-5.023437-7.28125-11.675781-7.28125-18.8125v-37.515625l-76.808594 12.917969v15.191406l48.371094-8.136719v37.519532c0 7.132812 2.710937 13.785156 7.28125 18.808594 3.351562 3.683593 7.703125 6.492187 12.707031 7.992187l19.589844 5.835937c27.652344 8.230469 46.589844 33.652344 46.589844 62.496094v44.328125h21.054687c4.074219 0 7.386719-3.3125 7.386719-7.386719v-56.914062c-.003906-28.84375-18.941406-54.265625-46.59375-62.5zm0 0" fill="#ffc473"/><path d="m179.917969 307.503906v35.207032c-13.496094 9.3125-29.855469 14.753906-47.484375 14.753906h-6.773438c-8.152344 0-16.035156-1.160156-23.488281-3.339844.617187-2.300781.9375-4.710938.9375-7.175781v-26.53125zm0 0" fill="#ffc473"/><path d="m216.214844 98.753906v148.921875c0 46.269531-37.507813 83.78125-83.78125 83.78125h-6.773438c-46.257812 0-83.765625-37.507812-83.765625-83.78125v-148.921875zm0 0" fill="#ffdba9"/><path d="m219.3125 231.15625h-3.101562v-55.609375h3.101562c15.355469 0 27.800781 12.449219 27.800781 27.804687 0 15.355469-12.445312 27.804688-27.800781 27.804688zm0 0" fill="#ffc473"/><path d="m224.648438 132.132812c.160156 11.113282-1.5625 21.808594-4.863282 31.773438-2.148437 6.492188-11.726562 5.042969-11.875-1.800781 0-.320313-.007812-.640625-.019531-.960938-1.199219-32.664062-27.621094-59.296875-60.277344-60.71875-28.644531-1.25-53.316406 16.609375-62.320312 41.898438-.121094.3125-.21875.621093-.332031.933593-6.5625 18.488282-20.929688 33.285157-39.136719 40.425782-7.652344 3.015625-16.007813 4.652344-24.730469 4.652344-4.492188 0-8.875-.429688-13.117188-1.269532 11.023438-9.394531 19.339844-22.210937 22.730469-36.835937.660157-2.84375 1.128907-5.765625 1.398438-8.738281-.21875-2.609376-.328125-5.261719-.328125-7.941407 0-1.859375.050781-3.722656.171875-5.554687v-.027344c.269531-4.644531.859375-9.195312 1.75-13.636719 3.832031-18.980469 13.246093-35.949219 26.460937-49.105469 17.886719-17.816406 42.730469-28.652343 70.082032-28.089843 51.65625 1.058593 93.664062 43.332031 94.40625 94.996093zm0 0" fill="#57555c"/><path d="m90.246094 94.785156c-6.785156.957032-29.914063 5.632813-42.8125 25.8125-1.730469 2.710938-3.289063 6.339844-4.949219 10.183594-2.933594 6.832031-6.195313 14.414062-11.777344 19.449219.660157-2.839844 1.132813-5.761719 1.402344-8.734375-.222656-2.613282-.332031-5.265625-.332031-7.945313 0-1.859375.050781-3.722656.171875-5.550781v-.03125c.269531-4.640625.859375-9.195312 1.75-13.636719.351562-.621093.710937-1.230469 1.089843-1.820312 16.347657-25.582031 44.984376-31.40625 53.367188-32.585938 4.101562-.578125 7.894531 2.28125 8.472656 6.382813.578125 4.113281-2.28125 7.90625-6.382812 8.476562zm0 0" fill="#3c3b41"/><path d="m219.496094 377.660156-18.152344-5.410156v132.203125h57.363281c4.070313 0 7.378907-3.308594 7.378907-7.378906v-56.914063c.003906-28.847656-18.941407-54.265625-46.589844-62.5zm0 0" fill="#6d76e7"/><path d="m219.496094 377.660156-12.324219-3.671875-5.828125-1.734375v29.421875c21.953125 10.839844 36.304688 33.347657 36.304688 58.453125v44.324219h21.058593c1.015625 0 1.988281-.207031 2.867188-.578125 2.648437-1.121094 4.511719-3.746094 4.511719-6.800781v-56.917969c0-6.15625-.871094-12.152344-2.496094-17.863281-5.992188-21.046875-22.347656-38.15625-44.09375-44.632813zm0 0" fill="#4b5be5"/><path d="m79.488281 374.839844-9.464843 2.820312c-27.648438 8.234375-46.601563 33.652344-46.601563 62.496094v56.917969c0 4.070312 3.308594 7.378906 7.390625 7.378906h48.679688v-129.613281zm0 0" fill="#6d76e7"/><path d="m79.488281 425.953125h121.855469v78.5h-121.855469zm0 0" fill="#e1b5ec"/><path d="m86.296875 192.085938c0 4.78125-3.878906 8.660156-8.664063 8.660156-4.78125 0-8.660156-3.878906-8.660156-8.660156 0-4.785157 3.878906-8.664063 8.660156-8.664063 4.785157 0 8.664063 3.878906 8.664063 8.664063zm0 0"/><path d="m155.605469 192.085938c0 4.78125-3.878907 8.660156-8.660157 8.660156-4.785156 0-8.664062-3.878906-8.664062-8.660156 0-4.785157 3.878906-8.664063 8.664062-8.664063 4.78125 0 8.660157 3.878906 8.660157 8.664063zm0 0"/><path d="m124.375 282.71875c10.835938-3.972656 17.253906-11.519531 20.113281-15.664062 2.355469-3.410157 1.5-8.085938-1.914062-10.4375-3.410157-2.355469-8.082031-1.496094-10.4375 1.914062-1.847657 2.679688-5.984375 7.554688-12.925781 10.097656-9.074219 3.324219-17.15625.625-20.207032-.6875-3.804687-1.636718-8.222656.117188-9.859375 3.925782-1.640625 3.804687.117188 8.21875 3.921875 9.855468 3.035156 1.308594 9.296875 3.5 17.15625 3.5 4.324219 0 9.132813-.664062 14.152344-2.503906zm0 0"/><path d="m270.773438 420.011719c-7.230469-25.152344-27.046876-42.972657-51.6875-50.304688-5.546876-1.652343-11.15625-3.183593-16.664063-4.960937-10.339844-3.34375-15-11.980469-15-22.378906 0-7.28125 0-14.5625 0-21.84375 14.113281-10.65625 24.945313-25.382813 30.929687-42.023438 4.714844-13.113281 5.367188-26.371094 5.367188-40.125 16.964844-2.121094 30.308594-16.742188 30.882812-33.828125.574219-17.171875-11.847656-32.699219-28.742187-35.882813 3.300781-5.988281 4.410156-14.121093 5.332031-20.816406 1.015625-7.386718 1.242188-14.882812.660156-22.316406 27.6875-18.027344 38.628907-54.601562 25.238282-84.824219-12.320313-27.8125-42.542969-44.523437-72.652344-39.960937-18.746094 2.84375-35.84375 13.644531-46.464844 29.347656-28.074218-2.679688-56.351562 6.300781-77.671875 24.769531-20.8125 18.023438-34.925781 45.046875-35.851562 72.808594-.277344 4.582031-.21875 9.1875.128906 13.765625-1.464844 14.410156-8.480469 27.777344-18.972656 37.675781-2.492188 2.347657-5.148438 4.277344-5.105469 8.042969.035156 3.15625 2.050781 5.875 4.984375 6.984375 7.757813 2.9375 18.40625 2.085937 26.433594.929687 0 6.726563-2.074219 17.867188 2.472656 23.464844 0 11.703125-.570313 23.550782.199219 35.230469 1.496094 22.707031 11.625 44.398437 28.113281 60.085937 9.382813 8.925782 20.667969 15.792969 32.90625 20.03125 0 10.960938 1.402344 23.078126-9.097656 30.089844-4.089844 2.734375-9.359375 3.734375-14.015625 5.121094-5.296875 1.574219-10.535156 3.183594-15.53125 5.589844-15.800782 7.609375-28.421875 20.996094-35.296875 37.113281-4.597657 10.777344-5.746094 21.992187-5.746094 33.550781 0 17.082032-.550781 34.257813 0 51.332032.292969 9.109374 6.96875 15.179687 15.917969 15.28125 3.441406.039062 6.886718 0 10.332031 0h108.464844 101.597656c2.144531 0 4.3125.085937 6.457031 0 7.40625-.300782 13.804688-5.46875 14.773438-13.007813.273437-2.15625.128906-4.40625.128906-6.570313 0-17.21875.070312-34.4375 0-51.660156-.03125-7.015625-.878906-13.957031-2.820312-20.710937zm-235.125-2.554688c6.703124-15.503906 20.144531-27.671875 36.335937-32.550781v92.382812 19.660157h-41.058594c0-11.808594 0-23.617188 0-35.429688 0-14.828125-1.3125-30.105469 4.722657-44.0625zm222.933593 22.699219v56.792969h-49.734375c0-29.273438 0-58.546875 0-87.820313 0-8.9375 0-17.875 0-26.8125l8.503906 2.535156h.003907c24.058593 7.167969 41.226562 30.191407 41.226562 55.304688zm-125.898437-260.570312h46.839844v28.015624h-46.839844zm50.800781-15.007813c-11.640625 0-23.285156 0-34.925781 0-5.976563 0-11.953125-.042969-17.929688 0-7.710937.058594-13.117187 4.457031-12.949218 12.625h-12.339844c.128906-6.933594-4.050782-12.316406-11.222656-12.625-3.96875-.171875-7.980469 0-11.957032 0 7.246094-10.058594 9.714844-22.226563 16.582032-32.378906 6.554687-9.691407 16.15625-17.128907 27.167968-21.074219 22.277344-7.980469 47.648438-.648438 62.375 17.816406 3.851563 4.824219 6.902344 10.285156 8.96875 16.105469 2.308594 6.515625 2.164063 12.886719 3.402344 19.53125zm56.128906 38.773437c0 9.683594-6.8125 17.800782-15.894531 19.820313v-39.640625c9.082031 2.019531 15.894531 10.140625 15.894531 19.820312zm-200.0625-60.882812c2.957031-21.957031 18.652344-38.304688 39.308594-45.007812 5.355469-1.734376 15.582031-1.5625 17.515625-7.917969 1.554688-5.101563-2.578125-9.789063-7.667969-9.652344-3.042969.082031-6.25 1.023437-9.175781 1.777344-12.195312 3.148437-23.863281 8.890625-33.261719 17.34375 7.769531-18.429688 21.800781-33.976563 39.34375-43.582031 17.144531-9.386719 36.132813-12.066407 55.382813-9.898438 9.957031 1.429688 19.648437 4.589844 28.539062 9.304688 4.496094 2.390624 8.785156 5.171874 12.816406 8.285156 3.367188 2.601562 7.007813 4.96875 11.140626 2.203125 10.464843-7-4.601563-16.28125-9.964844-19.660157-8.933594-5.625-18.726563-9.878906-28.929688-12.585937 15.855469-17.949219 42.597656-23.207031 63.988282-12.386719 19.230468 9.730469 30.960937 30.675782 29.113281 52.160156-1.195313 13.875-7.945313 26.972657-18.546875 36.003907-1.253906-5.085938-2.886719-10.078125-4.890625-14.921875-1.632813-3.941406-3.4375-9.957032-6.992188-12.566406-2.960937-2.175782-7.226562-1.832032-9.800781.792968-3.277344 3.339844-2.046875 7.210938-.171875 10.839844 9.644531 18.667969 12.3125 40.5625 7.496094 61.015625-3.839844-28.242187-25.320313-52.132813-52.953125-59.066406-28.015625-7.023438-58.414063 4.257812-74.941406 27.953125-4.457032 6.386718-7.085938 13.289062-9.996094 20.425781-3.597656 8.824219-9.3125 16.738281-16.539063 22.949219-10.328125 8.480468-22.609375 13.773437-36.050781 14.472656 8.621094-11.175781 13.914062-24.34375 15.238281-38.28125zm9.011719 48.199219c7.007812-2.746094 13.46875-6.515625 19.242188-11.085938h22.53125v28.015625h-43.410157v-16.328125c.546875-.199219 1.09375-.386719 1.636719-.601562zm.832031 57.007812v-25.070312h31.371094c4.394531 0 8.824219.175781 13.214844 0 7.1875-.289063 11.285156-5.441407 11.359375-12.335938.066406-6.019531 0-12.042969 0-18.058593h12.339844v13.324218c0 5.289063-.5625 10.765625 4.019531 14.546875 5.550781 4.582031 17.179687 2.527344 23.761719 2.527344h32.902343c2.707031 0 5.78125.316406 8.398438-.5 5.808593-1.808594 7.765625-7.09375 7.765625-12.617187 0-9.96875 0-19.9375 0-29.90625h14.179687v39.652343c0 11.128907.574219 22.425781-.167969 33.519531-1.839843 27.59375-19.042968 52.542969-44.117187 64.183594-22.613281 10.496094-52.667969 9.765625-74.667969-1.921875-24.675781-13.109375-40.359375-39.429687-40.359375-67.34375zm55.734375 118.214844c5.570313-8.796875 5.484375-18.238281 5.484375-28.179687 20.546875 3.417968 43.035157 1.214843 61.800781-7.953126 0 5.730469-.261718 11.519532.058594 17.246094.746094 13.304688 9.136719 25.269532 21.367188 30.5625v40.882813c-20.339844 0-40.679688 0-61.019532 0-4.109374 0-8.488281-.140625-10.574218 4.339843-2.945313 6.335938 2.800781 10.605469 8.445312 10.667969 10.808594.121094 21.621094 0 32.429688 0h30.71875v63.492188h-106.847656v-63.492188c6.171874 0 18.351562 2.027344 18.351562-7.503906 0-9.546875-12.175781-7.503906-18.351562-7.503906v-38.066407c7.492187-2.648437 13.886718-7.742187 18.136718-14.492187zm0 0"/></svg>