<svg height="512pt" viewBox="-114 0 512 512.001" width="512pt" xmlns="http://www.w3.org/2000/svg"><path d="m211.359375 372.058594c0-13.792969-26.785156-24.96875-59.824219-24.96875-33.042968 0-59.828125 11.175781-59.828125 24.96875 0 13.789062 26.785157 24.96875 59.828125 24.96875 33.039063 0 59.824219-11.179688 59.824219-24.96875zm0 0" fill="#4b5be5"/><path d="m267.28125 444.074219v53.558593c0 3.835938-3.117188 6.949219-6.953125 6.949219h-214.472656c-3.835938 0-6.953125-3.113281-6.953125-6.949219v-53.558593c0-27.152344 17.839844-51.074219 43.855468-58.816407l12.332032-3.679687c6.257812-1.855469 11.421875-5.910156 14.746094-11.171875 2.597656-4.105469 4.0625-8.9375 4.0625-14.050781v-24.269531l72.285156-12.855469v35.304687c0 6.722656 2.550781 12.984375 6.851562 17.699219 3.15625 3.472656 7.25 6.113281 11.957032 7.527344l18.441406 5.496093c26.015625 7.742188 43.847656 31.664063 43.847656 58.816407zm0 0" fill="#ffdba9"/><g fill="#ffc473"><path d="m70.726562 392.953125c4.804688-1.429687 8.953126-4.15625 12.128907-7.722656l-.097657.027343c-7.246093 2.15625-13.855468 5.570313-19.625 9.960938zm0 0"/><path d="m223.433594 385.257812-18.441406-5.496093c-4.707032-1.414063-8.800782-4.054688-11.957032-7.527344-4.300781-4.714844-6.851562-10.976563-6.851562-17.699219v-35.304687l-72.285156 12.855469v7.039062l47.921874-8.523438v35.304688c0 6.722656 2.550782 12.984375 6.855469 17.699219 3.152344 3.472656 7.246094 6.113281 11.953125 7.527343l18.441406 5.496094c26.019532 7.742188 43.847657 31.664063 43.847657 58.816406v49.136719h17.410156c3.835937 0 6.953125-3.113281 6.953125-6.953125v-53.554687c0-27.152344-17.832031-51.074219-43.847656-58.816407zm0 0"/><path d="m186.183594 319.230469v25.394531c-13.230469 9.414062-29.417969 14.941406-46.890625 14.941406h-1.96875c-8.148438 0-16.011719-1.195312-23.425781-3.4375v-24.039062zm0 0"/></g><path d="m56.289062 126.058594v-24.15625h164.050782v158.820312c0 44.765625-36.292969 81.046875-81.046875 81.046875h-1.96875c-44.757813 0-81.039063-36.28125-81.039063-81.046875v-134.664062zm0 0" fill="#ffdba9"/><path d="m227.507812 249.179688h-7.171874v-55.929688h7.171874c15.257813 0 27.628907 12.371094 27.628907 27.628906v.671875c0 15.257813-12.371094 27.628907-27.628907 27.628907zm0 0" fill="#ffc473"/><path d="m267.28125 444.074219v26.125h-43.226562v34.386719h-140.582032v-34.386719h-44.570312v-26.125c0-27.152344 17.839844-51.074219 43.855468-58.816407l12.332032-3.679687c6.257812-1.855469 40.335937 3.542969 58.066406 3.652344 15.226562.085937 47.128906-6.882813 51.835938-5.46875l18.441406 5.496093c26.015625 7.742188 43.847656 31.664063 43.847656 58.816407zm0 0" fill="#96a0ef"/><path d="m223.433594 385.257812-18.441406-5.496093c-4.707032-1.414063-10.417969 1.78125-13.574219-1.691407-8.191407 2.921876-10.351563 3.546876-20.765625 4.5625 1.003906 1.835938-3.386719-.570312-1.980469.972657 3.15625 3.472656 7.25 6.113281 11.957031 7.527343l18.441406 5.496094c26.015626 7.742188 43.847657 31.664063 43.847657 58.816406v14.753907h24.359375v-26.125c.003906-27.152344-17.828125-51.074219-43.84375-58.816407zm0 0" fill="#7985eb"/><path d="m198.464844 376.792969c-1.800782 3.027343-5.953125 7.238281-15.769532 15.003906-15.0625 11.894531-17.722656 11.933594-21.964843 17.253906-.742188.929688-1.492188 1.988281-2.222657 3.195313-2.859374 4.714844-5.351562 11.71875-5.351562 22.207031 0-10.558594-2.523438-17.570313-5.398438-22.296875-.722656-1.167969-1.453124-2.195312-2.175781-3.105469-4.242187-5.320312-6.902343-5.359375-21.960937-17.253906-12.707032-10.050781-15.933594-14.152344-16.851563-17.4375 1.148438-1.214844 2.175781-2.539063 3.066407-3.953125 10.847656 4.390625 25.660156 8.542969 43.390624 8.652344 15.226563.089844 28.625-2.839844 39.808594-6.824219 1.582032 1.742187 3.414063 3.285156 5.429688 4.558594zm0 0" fill="#fff"/><path d="m262.890625 126.117188c2.746094-3.675782 4.390625-8.234376 4.390625-13.1875 0-12.15625-9.859375-22.015626-22.011719-22.015626-1.246093 0-2.453125.109376-3.640625.308594.464844-1.78125.722656-3.660156.722656-5.585937 0-7.992188-4.261718-14.980469-10.628906-18.839844.019532-.355469.027344-.699219.027344-1.058594 0-11.5625-8.902344-21.027343-20.234375-21.933593-1.273437-9.957032-9.757813-17.65625-20.0625-17.65625-4.386719 0-8.4375 1.410156-11.746094 3.785156-1.335937-12.652344-12.035156-22.515625-25.042969-22.515625-10.84375 0-20.089843 6.855469-23.636718 16.46875-4.703125-3.539063-10.550782-5.640625-16.894532-5.640625-12.742187 0-23.5 8.46875-26.96875 20.082031-1.726562-.433594-3.53125-.671875-5.390624-.671875-11.96875 0-21.6875 9.542969-21.992188 21.429688-3.058594-2.351563-6.875-3.777344-11.027344-3.777344-9.96875 0-18.058594 8.089844-18.058594 18.058594 0 1.1875.128907 2.351562.347657 3.480468-.121094 0-.226563-.019531-.347657-.019531-9.96875 0-18.046874 8.078125-18.046874 18.054687 0 6.972657 3.964843 13.015626 9.75 16.019532-8.503907 1.453125-14.980469 8.851562-14.980469 17.769531 0 8.890625 6.417969 16.257813 14.871093 17.761719-5.734374 3.027344-9.640624 9.039062-9.640624 15.96875 0 9.96875 8.078124 18.046875 18.046874 18.046875 1.613282 0 3.175782-.226563 4.660157-.621094 0 .207031-.03125.414063-.03125.621094 0 9.96875 8.078125 18.058593 18.058593 18.058593.988282 0 1.957032-.078124 2.90625-.238281v-64.1875c0-8.019531 0-8.019531 0-8.019531 11.191407 4.15625 25.363282-3.90625 29.367188-9.355469 4.027344 4.429688 9.839844 7.210938 16.296875 7.210938 10.3125 0 18.964844-7.089844 21.347656-16.664063 3.964844 5.816406 10.640625 9.632813 18.207031 9.632813 6.941407 0 13.132813-3.214844 17.167969-8.238281 3.914063 6.0625 10.726563 10.078124 18.480469 10.078124.910156 0 1.808594-.058593 2.691406-.167968 2.3125 9.679687 11.015625 16.878906 21.398438 16.878906 2.558594 0 5.023437-.445312 7.316406-1.246094-1.402344 2.886719-2.183594 6.132813-2.183594 9.5625 0 6.496094 2.816406 12.339844 7.308594 16.367188-4.488281 4.035156-7.308594 9.867187-7.308594 16.375 0 9.3125 5.785156 17.273437 13.960938 20.488281 2.492187.988281 5.210937 1.523437 8.050781 1.523437 12.152344 0 22.011719-9.859374 22.011719-22.011718 0-3.117188-.652344-6.074219-1.808594-8.753906 2.066406.644531 4.261719.992187 6.542969.992187 12.15625 0 22.015625-9.851563 22.015625-22.003906-.003906-9.4375-5.9375-17.476563-14.261719-20.613281zm0 0" fill="#6dd7a7"/><path d="m102.859375 20.597656c-1.238281.542969-2.421875 1.175782-3.558594 1.882813.707031.441406 1.398438.902343 2.0625 1.402343.417969-1.136718.921875-2.230468 1.496094-3.285156zm0 0" fill="#8adcb2"/><path d="m262.890625 126.117188c3.101563-4.148438 4.792969-9.417969 4.308594-15.113282-.941407-11.078125-10.296875-19.8125-21.414063-20.082031-1.429687-.035156-2.804687.074219-4.15625.300781.464844-1.78125.722656-3.660156.722656-5.585937 0-7.992188-4.261718-14.984375-10.628906-18.839844.019532-.355469.027344-.703125.027344-1.058594 0-11.5625-8.902344-21.027343-20.234375-21.933593-1.273437-9.957032-9.757813-17.65625-20.0625-17.65625-4.386719 0-8.4375 1.410156-11.746094 3.785156-1.335937-12.65625-12.035156-22.515625-25.042969-22.515625-5.546874 0-10.667968 1.800781-14.832031 4.839843 2.175781 1.585938 4.085938 3.515626 5.652344 5.703126 3.746094 5.226562 9.742187 8.226562 16.171875 8.1875h.132812c6.367188 0 12.039063 2.941406 15.746094 7.535156 4.363282 5.414062 9.550782 10.058594 15.230469 14.074218 5.640625 3.980469 9.320313 10.546876 9.320313 17.980469 0 .355469-.007813.703125-.03125 1.058594 6.371093 3.855469 10.632812 10.847656 10.632812 18.839844 0 .5625-.023438 1.128906-.066406 1.683593-.152344 1.945313 1.378906 3.566407 3.332031 3.597657.054687 0 .113281.003906.167969.003906 11.117187.269531 20.46875 9.003906 21.414062 20.082031.007813.105469.015625.214844.023438.320313.625 8.824219 3.257812 17.3125 7.390625 25.128906 1.960937 3.71875 2.894531 8.0625 2.410156 12.660156-1.101563 10.457031-9.738281 18.789063-20.222656 19.554688-.074219.003906-.148438.007812-.222657.015625-3.535156.222656-6.390624 3.121094-6.207031 6.660156.019531.378906.03125.761719.03125 1.144531 0 6.441407-2.769531 12.234375-7.179687 16.257813 1.96875 1.796875 4.261718 3.242187 6.78125 4.234375 2.800781 1.109375 5.886718 1.648437 9.105468 1.496093 10.90625-.503906 19.953126-9.207031 20.875-20.085937.324219-3.8125-.335937-7.433594-1.726562-10.652344 2.5625.796875 5.324219 1.136719 8.207031.925781 10.488281-.761718 19.125-9.097656 20.226563-19.550781 1.09375-10.445312-5.117188-19.597656-14.136719-22.996093zm0 0" fill="#00bb64"/><path d="m153.15625 434.453125c0 .980469-.019531 1.988281-.070312 3.035156-1.394532-5.089843-3.648438-10.648437-7.414063-15.730469-1.316406-1.78125-2.820313-3.5-4.539063-5.121093-10.425781-9.820313-18.730468-9.199219-35.390624-16.683594-4.855469-2.183594-15.367188-6.902344-24.714844-14.152344-8.355469-6.464843-15.769532-14.949219-17.332032-25.421875-.296874-1.996094-1.625-12.410156 5.140626-21.378906 7.890624-10.460938 20.875-11.144531 22.960937-11.222656l22.101563 10.550781v18.027344c-3.164063 3.234375-8.289063 9.453125-7.425782 16.511719.058594.496093.148438.980468.296875 1.492187.917969 3.285156 4.140625 7.386719 16.847657 17.4375 15.0625 11.894531 17.722656 11.933594 21.964843 17.253906.71875.910157 1.453125 1.9375 2.175781 3.105469 2.875 4.726562 5.398438 11.738281 5.398438 22.296875zm0 0" fill="#4b5be5"/><path d="m242.609375 360.378906c-1.5625 10.480469-9 18.976563-17.355469 25.453125-9.335937 7.230469-19.835937 11.945313-24.683594 14.121094-16.660156 7.484375-24.976562 6.863281-35.390624 16.683594-1.777344 1.667969-3.332032 3.460937-4.675782 5.308593-3.6875 5.023438-5.894531 10.519532-7.277344 15.542969-.050781-1.046875-.070312-2.054687-.070312-3.035156 0-10.492187 2.492188-17.492187 5.351562-22.210937.730469-1.203126 1.480469-2.261719 2.222657-3.191407 4.242187-5.320312 6.902343-5.359375 21.964843-17.257812 9.816407-7.761719 13.972657-11.972657 15.769532-15 .902344-1.503907 1.214844-2.707031 1.367187-3.925781.867188-7.058594-5.015625-16.195313-13.648437-18.332032v-27.699218l11.855468-10.285157c2.078126.082031 29.082032 4.984375 39.4375 22.449219 6.761719 8.96875 5.4375 19.382812 5.132813 21.378906zm0 0" fill="#4b5be5"/><path d="m98.074219 210.609375c0 4.503906-3.648438 8.152344-8.152344 8.152344-4.5 0-8.148437-3.648438-8.148437-8.152344 0-4.5 3.648437-8.148437 8.148437-8.148437 4.503906 0 8.152344 3.648437 8.152344 8.148437zm0 0"/><path d="m163.300781 210.609375c0 4.503906-3.648437 8.152344-8.148437 8.152344-4.503906 0-8.152344-3.648438-8.152344-8.152344 0-4.5 3.648438-8.148437 8.152344-8.148437 4.5 0 8.148437 3.648437 8.148437 8.148437zm0 0"/><path d="m104.304688 295.296875c2.878906 1.238281 8.824218 3.320313 16.289062 3.320313 4.105469 0 8.671875-.628907 13.4375-2.378907 10.292969-3.769531 16.386719-10.9375 19.101562-14.875 2.324219-3.371093 1.476563-7.988281-1.894531-10.3125-3.371093-2.328125-7.988281-1.480469-10.316406 1.890625-1.714844 2.488282-5.554687 7.011719-11.996094 9.371094-8.421875 3.085938-15.921875.582031-18.753906-.636719-3.761719-1.621093-8.125.113281-9.746094 3.875-1.617187 3.761719.117188 8.125 3.878907 9.746094zm0 0"/><path d="m284.566406 146.726562c0-9.332031-4.496094-18.011718-11.722656-23.492187 1.222656-3.265625 1.851562-6.742187 1.851562-10.308594 0-14.714843-10.855468-26.941406-24.980468-29.09375-.492188-8.246093-4.355469-15.757812-10.6875-20.933593-1.183594-12.113282-9.871094-22.285157-21.433594-25.511719-3.769531-10.945313-14.179688-18.65625-26.140625-18.65625-2.34375 0-4.648437.292969-6.871094.863281-5.035156-11.636719-16.589843-19.59375-29.921875-19.59375-10.652344 0-20.511718 5.265625-26.539062 13.679688-4.378906-1.878907-9.105469-2.851563-13.988282-2.851563-13.429687 0-25.683593 7.734375-31.679687 19.417969-.226563-.003906-.453125-.007813-.683594-.007813-12.402343 0-22.929687 7.496094-27.277343 18.300781-1.863282-.429687-3.785157-.648437-5.742188-.648437-13.0625 0-23.863281 9.886719-25.308594 22.570313-10.519531 3.128906-18.210937 12.894531-18.210937 24.417968 0 5.089844 1.5 9.925782 4.1875 14-5.800781 4.695313-9.417969 11.859375-9.417969 19.789063 0 7.90625 3.609375 15.0625 9.394531 19.765625-2.671875 4.070312-4.164062 8.898437-4.164062 13.964844 0 13.46875 10.511719 24.527343 23.757812 25.40625 2.742188 9.066406 10.414063 16.003906 19.882813 17.703124v55.214844c0 24.152344 9.839844 46.972656 26.875 63.5-4.464844 2.101563-9.074219 5.332032-12.832032 10.308594-7.96875 10.570312-7.238281 22.367188-6.550781 26.945312 1.285157 8.617188 5.621094 15.945313 11.21875 22.078126-21.988281 11.839843-36.097656 34.875-36.097656 60.519531v53.558593c0 7.921876 6.445313 14.367188 14.367187 14.367188h214.476563c7.921875 0 14.367187-6.445312 14.367187-14.367188v-53.558593c0-25.605469-14.078124-48.625-36.007812-60.476563 5.617188-6.140625 9.96875-13.484375 11.257812-22.121094.605469-4.050781-2.1875-7.824218-6.238281-8.429687-4.050781-.601563-7.824219 2.1875-8.429687 6.238281-1.800782 12.046875-14.503906 23.453125-37.75 33.902344-3.449219 1.546875-6.554688 2.742188-9.394532 3.753906 13.921876-11.070312 18.230469-16.34375 19.0625-23.171875 1.160157-9.503906-4.757812-19.488281-13.59375-24.246093v-18.554688l3.300782-3.128906c1.246094-1.0625 2.46875-2.175782 3.664062-3.324219 5.886719 1.328125 17.96875 5.058594 25.957032 12.632813 2.96875 2.820312 7.664062 2.695312 10.484374-.277344 2.816407-2.972656 2.691407-7.667969-.28125-10.484375-7.6875-7.292969-17.574218-11.722657-25.433593-14.261719 10.679687-14.921875 16.460937-32.777344 16.460937-51.402344v-4.132812c19.210938-.136719 34.796875-15.796875 34.796875-35.039063v-.667969c0-10.203124-4.382812-19.398437-11.363281-25.808593 4.140625-5.070313 6.628906-11.539063 6.628906-18.582031 0-.15625 0-.3125-.003906-.46875 14.976562-1.355469 26.753906-13.976563 26.753906-29.296876zm-129.632812 257.699219c-.628906.789063-1.214844 1.609375-1.777344 2.449219-.566406-.839844-1.152344-1.660156-1.777344-2.449219-3.070312-3.851562-5.585937-5.605469-9.757812-8.511719-2.964844-2.070312-7.03125-4.902343-13.402344-9.9375-1.378906-1.085937-2.644531-2.109374-3.828125-3.082031 9.433594 2.316407 19.0625 3.519531 28.789063 3.578125.238281 0 .472656.003906.710937.003906 9.25 0 18.441406-1.050781 27.46875-3.121093-1.019531.832031-2.109375 1.707031-3.265625 2.621093-6.375 5.035157-10.4375 7.867188-13.402344 9.9375-4.171875 2.90625-6.691406 4.660157-9.757812 8.511719zm26.648437-36.394531c-9.28125 2.460938-18.773437 3.691406-28.316406 3.609375-11.347656-.070313-22.558594-1.90625-33.417969-5.46875.9375-3.089844 1.4375-6.316406 1.457032-9.59375.003906-.074219.011718-.144531.011718-.21875v-8.628906c5.25.960937 10.609375 1.453125 16.007813 1.453125h1.96875c13.875 0 27.304687-3.175782 39.472656-9.265625v14.617187c0 4.695313.976563 9.28125 2.816406 13.496094zm-106.824219-24.566406c4.445313-5.890625 11.4375-7.589844 15.140626-8.082032 3.570312 2.269532 7.292968 4.292969 11.113281 6.007813l5.46875 3.042969v9.042968c-5.648438 6.59375-8.1875 13.558594-7.367188 20.292969.832031 6.828125 5.140625 12.101563 19.0625 23.171875-2.839843-1.011718-5.941406-2.207031-9.390625-3.757812-23.25-10.445313-35.953125-21.851563-37.75-33.902344-.320312-2.128906-.992187-9.5625 3.722656-15.816406zm5.066407 50.6875c8.960937 6.300781 18.121093 10.425781 22.878906 12.5625 6.191406 2.78125 11.195313 4.472656 15.613281 5.964844 7.582032 2.558593 12.15625 4.105468 17.730469 9.355468 4.378906 4.125 7.605469 9.703125 9.625 16.554688v58.574218h-54.78125v-26.96875c0-4.09375-3.320313-7.414062-7.417969-7.414062h-37.152344v-18.707031c0-22.070313 13.320313-41.675781 33.503907-49.921875zm-33.503907 83.460937h29.738282v19.554688h-29.738282zm185.152344 19.554688v-19.554688h28.390625v19.554688zm-27.867187-90.453125c4.75-2.132813 13.890625-6.25 22.835937-12.53125 20.136719 8.257812 33.421875 27.851562 33.421875 49.890625v18.703125h-35.808593c-4.09375 0-7.414063 3.320312-7.414063 7.417968v26.96875h-56.136719v-58.144531c2.011719-7.050781 5.289063-12.769531 9.757813-16.984375 5.574219-5.25 10.152343-6.796875 17.734375-9.355468 4.414062-1.492188 9.421875-3.183594 15.609375-5.964844zm44.113281-185.164063c0 11.0625-8.933594 20.074219-19.964844 20.210938v-35.855469c.210938.003906.421875.015625.632813.015625 3.621093 0 7.089843-.660156 10.292969-1.863281 5.441406 3.625 9.039062 9.808594 9.039062 16.820312zm7.417969-60.238281c-1.484375 0-2.949219-.21875-4.34375-.65625-2.769531-.859375-5.78125-.027344-7.71875 2.125s-2.441407 5.238281-1.292969 7.898438c.796875 1.847656 1.203125 3.800781 1.203125 5.8125 0 4.363281-1.9375 8.273437-4.980469 10.949218-3.316406-1.042968-6.84375-1.605468-10.496094-1.605468h-7.171874c-.964844 0-1.878907.1875-2.722657.519531-2.414062-2.625-3.820312-6.109375-3.820312-9.867188 0-4.191406 1.71875-8.046875 4.847656-10.859375 1.566406-1.40625 2.460937-3.414062 2.457031-5.519531 0-2.105469-.894531-4.113281-2.464844-5.515625-3.078124-2.757812-4.839843-6.710938-4.839843-10.84375 0-2.230469.484375-4.355469 1.4375-6.320312 1.3125-2.699219.867187-5.925782-1.128907-8.171876-1.996093-2.242187-5.148437-3.0625-7.984374-2.074218-1.582032.554687-3.222657.832031-4.875.832031-6.777344 0-12.609376-4.601563-14.1875-11.1875-.875-3.671875-4.371094-6.101563-8.121094-5.636719-.601563.074219-1.199219.113282-1.78125.113282-4.96875 0-9.546875-2.5-12.25-6.683594-1.292969-2-3.46875-3.261719-5.847656-3.382813-2.386719-.121093-4.675782.90625-6.164063 2.765625-2.789063 3.472656-6.9375 5.464844-11.386719 5.464844-4.832031 0-9.34375-2.390625-12.074218-6.394531-1.648438-2.417969-4.558594-3.636719-7.4375-3.125-2.875.515625-5.183594 2.671875-5.886719 5.511719-1.617188 6.496093-7.4375 11.035156-14.152344 11.035156-4.109375 0-8.050781-1.742188-10.808594-4.777344-1.496093-1.648438-3.660156-2.542969-5.875-2.421875-2.222656.117187-4.273437 1.222656-5.589843 3.015625-2.417969 3.289062-13.339844 9.570312-20.8125 6.792969-2.273438-.84375-4.820313-.519531-6.816407.863281-1.992187 1.386719-3.179687 3.664062-3.179687 6.089844v20.292968c0 4.09375 3.320312 7.414063 7.414062 7.414063 4.097656 0 7.417969-3.320313 7.417969-7.414063v-11.707031c8.453125-.171875 16.621094-3.878906 22.226563-8.058593 4.730468 3.0625 10.292968 4.742187 16.019531 4.742187 9.511719 0 18.132812-4.519531 23.554687-11.761719 4.699219 3.046875 10.238282 4.730469 16 4.730469 6.03125 0 11.789063-1.816406 16.625-5.136719 4.617188 3.929688 10.367188 6.351563 16.515625 6.871094 4.460938 9.472656 13.679688 15.921875 24.328125 16.730469-.011718.328125-.015625.65625-.015625.984375 0 5.875 1.765625 11.570312 4.984375 16.371094-3.21875 4.804687-4.984375 10.496093-4.984375 16.371093 0 10.402344 5.355469 19.746094 13.960938 25.03125v47.65625.046875 11.496094c0 18.90625-7.152344 36.871094-20.144531 50.601562l-5.820313 5.507813c-1.625 1.394531-3.324219 2.71875-5.070313 3.953125-12.476562 8.875-27.207031 13.566406-42.59375 13.566406h-1.96875c-6.285156 0-12.503906-.785156-18.492187-2.34375-3.8125-.984375-7.550781-2.289062-11.140625-3.875l-12.023438-6.691406c-20.019531-13.765625-31.960937-36.4375-31.960937-60.71875v-82.230469c0-4.097656-3.320313-7.417969-7.417969-7.417969-4.09375 0-7.414062 3.320313-7.414062 7.417969v11.59375c-3.578125-1.679687-6.074219-5.296875-6.132813-9.492187.019531-.257813.027344-.511719.027344-.769532 0-2.300781-1.070313-4.476562-2.894531-5.878906-1.828125-1.40625-4.203125-1.878906-6.429688-1.285156-.929687.246094-1.851562.371094-2.746094.371094-5.863281 0-10.632812-4.765625-10.632812-10.628906 0-3.953126 2.179688-7.558594 5.6875-9.410157 2.800781-1.476562 4.355469-4.574219 3.867188-7.703125-.488282-3.128906-2.910157-5.605468-6.03125-6.160156-5.070313-.902344-8.753907-5.300781-8.753907-10.457031 0-5.1875 3.707031-9.585938 8.816407-10.460938 3.140624-.535156 5.585937-3.015625 6.078124-6.164062.492188-3.148438-1.082031-6.257813-3.90625-7.726563-3.550781-1.84375-5.753906-5.460937-5.753906-9.4375 0-5.800781 4.65625-10.527344 10.425782-10.636718.179687.011718.359374.015624.546874.015624 2.214844 0 4.3125-.988281 5.71875-2.691406 1.410157-1.707031 1.984376-3.953125 1.566407-6.128906-.144531-.730469-.214844-1.425781-.214844-2.074219 0-5.867187 4.773437-10.640625 10.640625-10.640625 2.351562 0 4.601562.773438 6.5 2.238282 2.210938 1.703124 5.195312 2.019531 7.714844.816406 2.519531-1.199219 4.152344-3.710938 4.226562-6.503906.203125-7.964844 6.609375-14.203126 14.578125-14.203126 1.199219 0 2.402344.152344 3.578125.449219 3.851563.96875 7.78125-1.265625 8.917969-5.070312 2.601563-8.707031 10.769531-14.789063 19.867187-14.789063 4.523438 0 8.824219 1.433594 12.433594 4.148438 1.875 1.410156 4.304688 1.847656 6.554688 1.1875 2.246094-.660156 4.050781-2.347656 4.863281-4.546875 2.5625-6.945313 9.265625-11.617188 16.675781-11.617188 9.117188 0 16.714844 6.824219 17.667969 15.878907.277344 2.625 1.929687 4.90625 4.339844 5.988281 2.40625 1.082031 5.210937.800781 7.355469-.738281 2.1875-1.570313 4.753906-2.398438 7.425781-2.398438 6.429687 0 11.890625 4.808594 12.707031 11.183594.445312 3.480468 3.269531 6.171875 6.765625 6.453125 7.519531.601562 13.410156 6.988281 13.410156 14.539062 0 .21875-.003906.429688-.015625.648438-.15625 2.734375 1.214844 5.335937 3.5625 6.753906 4.417969 2.675781 7.054688 7.347656 7.054688 12.496094 0 1.238281-.160156 2.488281-.480469 3.710937-.636719 2.433594.003906 5.019532 1.699219 6.875 1.695312 1.859375 4.214844 2.726563 6.695312 2.3125.828125-.136718 1.621094-.203125 2.417969-.203125 8.050781 0 14.597656 6.546875 14.597656 14.59375 0 3.175781-1.007812 6.203125-2.914062 8.753907-1.398438 1.867187-1.832031 4.28125-1.179688 6.519531.65625 2.238281 2.324219 4.039062 4.503907 4.859375 5.65625 2.128906 9.457031 7.621094 9.457031 13.667968.003906 8.042969-6.546875 14.585938-14.59375 14.585938zm0 0"/></svg>